<mxfile host="app.diagrams.net" agent="Mozilla/5.0 (Windows NT 10.0; Win64; x64) AppleWebKit/537.36 (KHTML, like Gecko) Chrome/131.0.0.0 Safari/537.36 Edg/131.0.0.0" version="25.0.3">
  <diagram name="第 1 页" id="4UG25Fp_B6W0l5dKrZMW">
    <mxGraphModel dx="1042" dy="565" grid="0" gridSize="10" guides="1" tooltips="1" connect="1" arrows="1" fold="1" page="0" pageScale="1" pageWidth="827" pageHeight="1169" math="0" shadow="0">
      <root>
        <mxCell id="0" />
        <mxCell id="1" parent="0" />
        <mxCell id="oYlRctocb77fKKuBrY3P-28" value="" style="ellipse;whiteSpace=wrap;html=1;aspect=fixed;labelBackgroundColor=#000000;labelBorderColor=default;" parent="1" vertex="1">
          <mxGeometry as="geometry" />
        </mxCell>
        <mxCell id="oYlRctocb77fKKuBrY3P-4" value="" style="endArrow=none;html=1;rounded=0;entryX=1;entryY=0.5;entryDx=0;entryDy=0;strokeWidth=4;" parent="1" edge="1">
          <mxGeometry width="50" height="50" relative="1" as="geometry">
            <mxPoint x="475" y="320" as="sourcePoint" />
            <mxPoint x="415" y="320" as="targetPoint" />
          </mxGeometry>
        </mxCell>
        <mxCell id="oYlRctocb77fKKuBrY3P-16" value="" style="endArrow=none;html=1;rounded=0;entryX=1;entryY=0.5;entryDx=0;entryDy=0;strokeWidth=4;" parent="1" edge="1">
          <mxGeometry width="50" height="50" relative="1" as="geometry">
            <mxPoint x="475" y="640" as="sourcePoint" />
            <mxPoint x="415" y="640" as="targetPoint" />
          </mxGeometry>
        </mxCell>
        <mxCell id="oYlRctocb77fKKuBrY3P-49" value="&lt;font style=&quot;font-size: 50px;&quot;&gt;触&lt;br&gt;发&lt;br&gt;器&lt;/font&gt;" style="rounded=0;whiteSpace=wrap;html=1;direction=south;strokeWidth=6;" parent="1" vertex="1">
          <mxGeometry x="475" y="235" width="120" height="485" as="geometry" />
        </mxCell>
        <mxCell id="oYlRctocb77fKKuBrY3P-54" value="" style="endArrow=none;html=1;rounded=0;entryX=0.173;entryY=0.018;entryDx=0;entryDy=0;entryPerimeter=0;strokeWidth=4;" parent="1" target="oYlRctocb77fKKuBrY3P-49" edge="1">
          <mxGeometry width="50" height="50" relative="1" as="geometry">
            <mxPoint x="675" y="319" as="sourcePoint" />
            <mxPoint x="555" y="380" as="targetPoint" />
          </mxGeometry>
        </mxCell>
        <mxCell id="oYlRctocb77fKKuBrY3P-55" value="" style="endArrow=none;html=1;rounded=0;entryX=0.837;entryY=0;entryDx=0;entryDy=0;entryPerimeter=0;strokeWidth=4;" parent="1" target="oYlRctocb77fKKuBrY3P-49" edge="1">
          <mxGeometry width="50" height="50" relative="1" as="geometry">
            <mxPoint x="680" y="641" as="sourcePoint" />
            <mxPoint x="605.0000000000001" y="635.0649999999999" as="targetPoint" />
          </mxGeometry>
        </mxCell>
        <mxCell id="oYlRctocb77fKKuBrY3P-77" value="&lt;font style=&quot;font-size: 50px;&quot;&gt;R&lt;/font&gt;" style="text;html=1;align=center;verticalAlign=middle;resizable=0;points=[];autosize=1;strokeColor=none;fillColor=none;strokeWidth=4;" parent="1" vertex="1">
          <mxGeometry x="405" y="238" width="60" height="70" as="geometry" />
        </mxCell>
        <mxCell id="oYlRctocb77fKKuBrY3P-78" value="&lt;span style=&quot;font-size: 50px;&quot;&gt;S&lt;/span&gt;" style="text;html=1;align=center;verticalAlign=middle;resizable=0;points=[];autosize=1;strokeColor=none;fillColor=none;strokeWidth=4;" parent="1" vertex="1">
          <mxGeometry x="405" y="565" width="60" height="70" as="geometry" />
        </mxCell>
        <mxCell id="oYlRctocb77fKKuBrY3P-79" value="&lt;span style=&quot;font-size: 50px;&quot;&gt;Q&lt;/span&gt;" style="text;html=1;align=center;verticalAlign=middle;resizable=0;points=[];autosize=1;strokeColor=none;fillColor=none;strokeWidth=4;" parent="1" vertex="1">
          <mxGeometry x="605" y="240" width="60" height="70" as="geometry" />
        </mxCell>
        <mxCell id="oYlRctocb77fKKuBrY3P-80" value="&lt;font style=&quot;font-size: 50px;&quot;&gt;Q&lt;/font&gt;" style="text;html=1;align=center;verticalAlign=middle;resizable=0;points=[];autosize=1;strokeColor=none;fillColor=none;strokeWidth=4;" parent="1" vertex="1">
          <mxGeometry x="605" y="565" width="60" height="70" as="geometry" />
        </mxCell>
        <mxCell id="oYlRctocb77fKKuBrY3P-81" value="" style="endArrow=none;html=1;rounded=0;strokeWidth=4;" parent="1" edge="1">
          <mxGeometry width="50" height="50" relative="1" as="geometry">
            <mxPoint x="655" y="570" as="sourcePoint" />
            <mxPoint x="615" y="570" as="targetPoint" />
          </mxGeometry>
        </mxCell>
        <mxCell id="cNwGAEk1Y10MZiynIor9-1" value="" style="endArrow=none;html=1;rounded=0;strokeWidth=4;" edge="1" parent="1">
          <mxGeometry width="50" height="50" relative="1" as="geometry">
            <mxPoint x="225" y="941" as="sourcePoint" />
            <mxPoint x="196" y="941" as="targetPoint" />
          </mxGeometry>
        </mxCell>
        <mxCell id="cNwGAEk1Y10MZiynIor9-2" value="" style="endArrow=none;html=1;rounded=0;strokeWidth=6;" edge="1" parent="1">
          <mxGeometry width="50" height="50" relative="1" as="geometry">
            <mxPoint x="225" y="981" as="sourcePoint" />
            <mxPoint x="225" y="901" as="targetPoint" />
          </mxGeometry>
        </mxCell>
        <mxCell id="cNwGAEk1Y10MZiynIor9-3" value="" style="endArrow=none;html=1;rounded=0;strokeWidth=4;" edge="1" parent="1">
          <mxGeometry width="50" height="50" relative="1" as="geometry">
            <mxPoint x="225" y="921" as="sourcePoint" />
            <mxPoint x="265" y="901" as="targetPoint" />
          </mxGeometry>
        </mxCell>
        <mxCell id="cNwGAEk1Y10MZiynIor9-4" value="" style="endArrow=classic;html=1;rounded=0;strokeWidth=4;" edge="1" parent="1">
          <mxGeometry width="50" height="50" relative="1" as="geometry">
            <mxPoint x="225" y="961" as="sourcePoint" />
            <mxPoint x="265" y="981" as="targetPoint" />
          </mxGeometry>
        </mxCell>
        <mxCell id="cNwGAEk1Y10MZiynIor9-5" value="" style="endArrow=none;html=1;rounded=0;strokeWidth=4;" edge="1" parent="1">
          <mxGeometry width="50" height="50" relative="1" as="geometry">
            <mxPoint x="265" y="901" as="sourcePoint" />
            <mxPoint x="265" y="881" as="targetPoint" />
          </mxGeometry>
        </mxCell>
        <mxCell id="cNwGAEk1Y10MZiynIor9-6" value="" style="endArrow=none;html=1;rounded=0;strokeWidth=4;" edge="1" parent="1">
          <mxGeometry width="50" height="50" relative="1" as="geometry">
            <mxPoint x="265" y="981" as="sourcePoint" />
            <mxPoint x="265" y="1001" as="targetPoint" />
          </mxGeometry>
        </mxCell>
        <mxCell id="cNwGAEk1Y10MZiynIor9-9" value="&lt;span style=&quot;font-size: 50px;&quot;&gt;T&lt;/span&gt;" style="text;html=1;align=center;verticalAlign=middle;resizable=0;points=[];autosize=1;strokeColor=none;fillColor=none;strokeWidth=4;" vertex="1" parent="1">
          <mxGeometry x="254" y="904" width="50" height="70" as="geometry" />
        </mxCell>
        <mxCell id="cNwGAEk1Y10MZiynIor9-11" value="&lt;span style=&quot;font-size: 50px;&quot;&gt;b&lt;/span&gt;" style="text;html=1;align=center;verticalAlign=middle;resizable=0;points=[];autosize=1;strokeColor=none;fillColor=none;strokeWidth=4;" vertex="1" parent="1">
          <mxGeometry x="146" y="904" width="46" height="72" as="geometry" />
        </mxCell>
        <mxCell id="cNwGAEk1Y10MZiynIor9-12" value="&lt;span style=&quot;font-size: 50px;&quot;&gt;c&lt;/span&gt;" style="text;html=1;align=center;verticalAlign=middle;resizable=0;points=[];autosize=1;strokeColor=none;fillColor=none;strokeWidth=4;" vertex="1" parent="1">
          <mxGeometry x="246" y="812" width="43" height="72" as="geometry" />
        </mxCell>
        <mxCell id="cNwGAEk1Y10MZiynIor9-13" value="&lt;span style=&quot;font-size: 50px;&quot;&gt;e&lt;/span&gt;" style="text;html=1;align=center;verticalAlign=middle;resizable=0;points=[];autosize=1;strokeColor=none;fillColor=none;strokeWidth=4;" vertex="1" parent="1">
          <mxGeometry x="250" y="986" width="46" height="72" as="geometry" />
        </mxCell>
      </root>
    </mxGraphModel>
  </diagram>
</mxfile>
